<svg xmlns="http://www.w3.org/2000/svg" width="175.317" height="185.251" viewBox="0 0 175.317 185.251">
  <path id="Trazado_15" data-name="Trazado 15" d="M-27.611-53.675l6.661,1.592.526,4.471,5.589,5.392H-11.5l3.047,1.212,9.689,1.276,2.8,2.422,4.971,8.922,6.9,6.771L29.556-9.625l3.469.452,5.488,4.443L44.658.18l6.155.2L52.263,5.07l8.645,8.344,1.044,2.727,2.611,1.218.638,2.5,3.191,1.856L69.436,24.2l.522,4.294,2.727,4.061,2.147.348,1.277.678,1.079,48.143-8.082.646L67.871,105.43,32.5,90.422V69H0L-.05,28.748H-11.275V20.8H-63.4V-26.39h-34.73l26.064-33.184V-79.821l6.332,2.094,2.977,3.009,3.922,3.395h6.184l6.938,2.34,2.64,2.413,4.6,2.64,2.941.755,2.036,1.281.528,2.716Z" transform="translate(98.129 79.821)" fill="#5ca474"/>
</svg>
