<svg xmlns="http://www.w3.org/2000/svg" width="122.17" height="129.378" viewBox="0 0 122.17 129.378">
  <path id="Trazado_14" data-name="Trazado 14" d="M20.165-37.559l8.1-.623-1-48.2,15.176,9.413,1.031,1.958.638,2.2,5.341,4.277,2.812,3.035L53.6-61.607l4.189,2.73L58-53.358l.819,1.374,3.665.24,1.751.893,1.578,1.22,6.694.549,1.922.858L75.768-46.3l.769,3.453.58,5.116,1.164.654,5,.62h4.663l1.476-.839,3.522-.436,2.918,2.146,6.269,3.243,2.747,1.09,4.84,4.055,2.093,4.187,5.145,3.444L122.17-15.2,112.016-4.274l-.439,2.332h-5.729v4.11H91.9l-9.091,9.34H78.2v2.117l-2.117.623L64.121,12.8l-.958,22.034H20.245L20.724,43H0V14.889l6.422,1.9L18.909-13.676Z" transform="translate(0 86.378)" fill="#1384a6"/>
</svg>
