<svg xmlns="http://www.w3.org/2000/svg" width="205.945" height="103.93" viewBox="0 0 205.945 103.93">
  <path id="Trazado_17" data-name="Trazado 17" d="M0,0,47.863.243l-.011,14.544,5.07,3.671,5.467.536-.041,11.243,13.4.055,1.9-4.78,5.123,2.614V56.3l21.1-.2-.449-8.166,7.9.159,34.92-.009,1.026-21.911,11.924,1.268,2.089-.794V24.637h4.727l8.945-9.327h14.164V11.277h5.636l.436-2.5L201.109-1.93l4.36,3.811.476,1.842-11.087,12.6-2.564,6.938v3.318l-2.941,6.033-5.269,13.054L181.506,53.7l-6.419,6.861-3.887-1.4-1.339,1.054-15.352.343V79.591h13.047l.385,3.475-1.383,5.489-2.142,6.471-1.651,6.734L0,102Z" transform="translate(0 1.93)" fill="#c75a4e"/>
</svg>
