<svg xmlns="http://www.w3.org/2000/svg" width="69.198" height="99.28" viewBox="0 0 69.198 99.28">
  <path id="Trazado_18" data-name="Trazado 18" d="M3.251-2.706,7.1-1.327l6.549-7,3.3-9.745,4.467-11.081,3.1-6.233V-38.93l2.489-6.863L38.249-58.388l.861-.812s3.078,5.038,14.275,12.059a8.842,8.842,0,0,1,2.407,2.351,9.483,9.483,0,0,0-3.461,3.248,3.751,3.751,0,0,0-2.562.906c-.98-.082-2.533,1.326-2.533,1.326L47.508-31l-3.274-.344L42.967-31v3.551l-.312.67-2.915.376-1.648.377-1.3,1.133.172,4.291,3.732,3.655v4.408l-2.358,2.438L35.648-8.759l-4.463.893L22.974.577V9.19l2.833,6.239c.552,0,.528,12.119.528,12.671l-3.361,3.45L21.718,36.5l-.813,3.583L-4.788,39.57C-5.34,39.57.094,21.552.094,21l-.484-3.547-13.015-.04.045-18.729L1.908-1.628C2.486-2.144,3.251-2.706,3.251-2.706Z" transform="translate(13.406 59.199)" fill="#9ac23e"/>
</svg>
